# xmcd
#
# Track frame offsets:
#	150
#	13795
#	24542
#	34927
#	45331
#	58325
#	70009
#	80090
#	92755
#	107405
#	120752
#	131284
#
# Disc length: 1940 seconds
#
# Revision: 0
# Processed by: cddbd v1.4PL0 Copyright (c) Steve Scherf et al.
# Submitted via: EasyCDDAExtractor 4.6.9.1
#
DISCID=9007920c
DTITLE=Louvin Brothers - satan is real
DYEAR=1959
DGENRE=Bluegrass
TTITLE0=Satan Is Real
TTITLE1=There's A Higher Power
TTITLE2=The Christian Life
TTITLE3=The River Of Jordan
TTITLE4=The Kneeling Drunkard's Plea
TTITLE5=Are You Afraid To Die
TTITLE6=He Can Be Found
TTITLE7=Dying From Home, And Lost
TTITLE8=The Drunkard's Doom
TTITLE9=Satan's Jeweled Crown
TTITLE10=The Angels Rejoiced Last Night
TTITLE11=I'm Ready To Go Home
EXTD=
EXTT0=
EXTT1=
EXTT2=
EXTT3=
EXTT4=
EXTT5=
EXTT6=
EXTT7=
EXTT8=
EXTT9=
EXTT10=
EXTT11=
PLAYORDER=
